frame:2    pts:2048    pts_time:0.0464399
lavfi.silence_start=0
frame:71   pts:72704   pts_time:1.64862
lavfi.silence_end=1.65293
lavfi.silence_duration=1.65293
frame:111  pts:113664  pts_time:2.57741
lavfi.silence_start=2.52769
frame:118  pts:120832  pts_time:2.73995
lavfi.silence_end=2.76268
lavfi.silence_duration=0.234989
frame:253  pts:259072  pts_time:5.87465
lavfi.silence_start=5.84288
frame:256  pts:262144  pts_time:5.94431
lavfi.silence_end=5.96721
lavfi.silence_duration=0.124331
frame:313  pts:320512  pts_time:7.26785
lavfi.silence_start=7.24023
frame:315  pts:322560  pts_time:7.31429
lavfi.silence_end=7.33218
lavfi.silence_duration=0.0919501
frame:586  pts:600064  pts_time:13.6069
lavfi.silence_start=13.5646
lavfi.silence_end=13.6169
lavfi.silence_duration=0.0522676
frame:810  pts:829440  pts_time:18.8082
lavfi.silence_start=18.7601
lavfi.silence_end=18.8107
lavfi.silence_duration=0.0506122
frame:813  pts:832512  pts_time:18.8778
lavfi.silence_start=18.8286
frame:814  pts:833536  pts_time:18.901
lavfi.silence_end=18.9062
lavfi.silence_duration=0.0775737
frame:849  pts:869376  pts_time:19.7137
lavfi.silence_start=19.6733
frame:850  pts:870400  pts_time:19.737
lavfi.silence_end=19.7389
lavfi.silence_duration=0.0656009
frame:938  pts:960512  pts_time:21.7803
lavfi.silence_start=21.7486
frame:939  pts:961536  pts_time:21.8035
lavfi.silence_end=21.82
lavfi.silence_duration=0.0714286
frame:1329 pts:1360896 pts_time:30.8593
lavfi.silence_start=30.8322
frame:1331 pts:1362944 pts_time:30.9058
lavfi.silence_end=30.9165
lavfi.silence_duration=0.0842177
frame:1335 pts:1367040 pts_time:30.9986
lavfi.silence_start=30.9535
lavfi.silence_end=31.0166
lavfi.silence_duration=0.0631066
frame:1527 pts:1563648 pts_time:35.4569
lavfi.silence_start=35.4164
frame:1528 pts:1564672 pts_time:35.4801
lavfi.silence_end=35.4955
lavfi.silence_duration=0.0791156
frame:1542 pts:1579008 pts_time:35.8052
lavfi.silence_start=35.7592
frame:1543 pts:1580032 pts_time:35.8284
lavfi.silence_end=35.8427
lavfi.silence_duration=0.0835147
frame:1832 pts:1875968 pts_time:42.539
lavfi.silence_start=42.5051
lavfi.silence_end=42.5583
lavfi.silence_duration=0.05322
frame:2170 pts:2222080 pts_time:50.3873
lavfi.silence_start=50.3502
frame:2171 pts:2223104 pts_time:50.4105
lavfi.silence_end=50.4212
lavfi.silence_duration=0.0710658
frame:2231 pts:2284544 pts_time:51.8037
lavfi.silence_start=51.7604
frame:2232 pts:2285568 pts_time:51.8269
lavfi.silence_end=51.8379
lavfi.silence_duration=0.0774376
frame:2240 pts:2293760 pts_time:52.0127
lavfi.silence_start=51.9836
frame:2242 pts:2295808 pts_time:52.0591
lavfi.silence_end=52.0639
lavfi.silence_duration=0.0803175
frame:2247 pts:2300928 pts_time:52.1752
lavfi.silence_start=52.1444
frame:2248 pts:2301952 pts_time:52.1985
lavfi.silence_end=52.2171
lavfi.silence_duration=0.0726531
frame:2275 pts:2329600 pts_time:52.8254
lavfi.silence_start=52.7846
lavfi.silence_end=52.8456
lavfi.silence_duration=0.0609977
frame:2288 pts:2342912 pts_time:53.1273
lavfi.silence_start=53.0899
lavfi.silence_end=53.1403
lavfi.silence_duration=0.0504308
frame:2298 pts:2353152 pts_time:53.3595
lavfi.silence_start=53.3225
frame:2299 pts:2354176 pts_time:53.3827
lavfi.silence_end=53.3985
lavfi.silence_duration=0.0760544
frame:2420 pts:2478080 pts_time:56.1923
lavfi.silence_start=56.1529
frame:2428 pts:2486272 pts_time:56.378
lavfi.silence_end=56.3836
lavfi.silence_duration=0.230612
frame:2432 pts:2490368 pts_time:56.4709
lavfi.silence_start=56.436
frame:2443 pts:2501632 pts_time:56.7263
lavfi.silence_end=56.7364
lavfi.silence_duration=0.300408
frame:2457 pts:2515968 pts_time:57.0514
lavfi.silence_start=57.0125
frame:2461 pts:2520064 pts_time:57.1443
lavfi.silence_end=57.1553
lavfi.silence_duration=0.142721
frame:8051 pts:8244224 pts_time:186.944
lavfi.silence_start=186.905
lavfi.silence_end=186.956
lavfi.silence_duration=0.0502721
frame:9990 pts:10229760 pts_time:231.967
lavfi.silence_start=231.926
lavfi.silence_end=231.978
lavfi.silence_duration=0.0517914
frame:10221 pts:10466304 pts_time:237.331
lavfi.silence_start=237.29
frame:10222 pts:10467328 pts_time:237.354
lavfi.silence_end=237.364
lavfi.silence_duration=0.0732426
frame:10235 pts:10480640 pts_time:237.656
lavfi.silence_start=237.619
lavfi.silence_end=237.678
lavfi.silence_duration=0.0592971
frame:10946 pts:11208704 pts_time:254.166
lavfi.silence_start=254.136
frame:10958 pts:11220992 pts_time:254.444
lavfi.silence_end=254.463
lavfi.silence_duration=0.326644
frame:10963 pts:11226112 pts_time:254.56
lavfi.silence_start=254.518
frame:10965 pts:11228160 pts_time:254.607
lavfi.silence_end=254.619
lavfi.silence_duration=0.100975
frame:15838 pts:16218112 pts_time:367.758
lavfi.silence_start=367.727
frame:15839 pts:16219136 pts_time:367.781
lavfi.silence_end=367.792
lavfi.silence_duration=0.0653061
frame:15906 pts:16287744 pts_time:369.337
lavfi.silence_start=369.3
frame:15907 pts:16288768 pts_time:369.36
lavfi.silence_end=369.374
lavfi.silence_duration=0.0748753
frame:15919 pts:16301056 pts_time:369.638
lavfi.silence_start=369.604
frame:15925 pts:16307200 pts_time:369.778
lavfi.silence_end=369.794
lavfi.silence_duration=0.189637
frame:15930 pts:16312320 pts_time:369.894
lavfi.silence_start=369.851
frame:15931 pts:16313344 pts_time:369.917
lavfi.silence_end=369.926
lavfi.silence_duration=0.0757143
frame:16914 pts:17319936 pts_time:392.742
lavfi.silence_start=392.714
frame:16915 pts:17320960 pts_time:392.766
lavfi.silence_end=392.767
lavfi.silence_duration=0.0527438
frame:19599 pts:20069376 pts_time:455.088
lavfi.silence_start=455.051
lavfi.silence_end=455.101
lavfi.silence_duration=0.0507937
frame:19611 pts:20081664 pts_time:455.367
lavfi.silence_start=455.336
frame:19612 pts:20082688 pts_time:455.39
lavfi.silence_end=455.408
lavfi.silence_duration=0.0721542
frame:19633 pts:20104192 pts_time:455.877
lavfi.silence_start=455.846
frame:19634 pts:20105216 pts_time:455.901
lavfi.silence_end=455.907
lavfi.silence_duration=0.061678
frame:21261 pts:21771264 pts_time:493.679
lavfi.silence_start=493.643
lavfi.silence_end=493.699
lavfi.silence_duration=0.0567347
frame:21576 pts:22093824 pts_time:500.994
lavfi.silence_start=500.961
frame:21578 pts:22095872 pts_time:501.04
lavfi.silence_end=501.042
lavfi.silence_duration=0.0807937
frame:22844 pts:23392256 pts_time:530.437
lavfi.silence_start=530.402
frame:22850 pts:23398400 pts_time:530.576
lavfi.silence_end=530.584
lavfi.silence_duration=0.182381
frame:22852 pts:23400448 pts_time:530.622
lavfi.silence_start=530.584
frame:22853 pts:23401472 pts_time:530.646
lavfi.silence_end=530.662
lavfi.silence_duration=0.0775964
frame:22855 pts:23403520 pts_time:530.692
lavfi.silence_start=530.662
frame:22856 pts:23404544 pts_time:530.715
lavfi.silence_end=530.734
lavfi.silence_duration=0.0719728
frame:22898 pts:23447552 pts_time:531.691
lavfi.silence_start=531.648
frame:22899 pts:23448576 pts_time:531.714
lavfi.silence_end=531.726
lavfi.silence_duration=0.0779365
frame:22907 pts:23456768 pts_time:531.9
lavfi.silence_start=531.856
frame:22925 pts:23475200 pts_time:532.317
lavfi.silence_end=532.318
lavfi.silence_duration=0.462063
frame:22932 pts:23482368 pts_time:532.48
lavfi.silence_start=532.441
frame:22933 pts:23483392 pts_time:532.503
lavfi.silence_end=532.526
lavfi.silence_duration=0.0852154
frame:23915 pts:24488960 pts_time:555.305
lavfi.silence_start=555.26
frame:23916 pts:24489984 pts_time:555.328
lavfi.silence_end=555.35
lavfi.silence_duration=0.0897052
frame:23919 pts:24493056 pts_time:555.398
lavfi.silence_start=555.361
lavfi.silence_end=555.417
lavfi.silence_duration=0.0557596
frame:25811 pts:26430464 pts_time:599.33
lavfi.silence_start=599.29
lavfi.silence_end=599.348
lavfi.silence_duration=0.0585261
frame:25880 pts:26501120 pts_time:600.932
lavfi.silence_start=600.884
lavfi.silence_end=600.936
lavfi.silence_duration=0.0518594
frame:25925 pts:26547200 pts_time:601.977
lavfi.silence_start=601.935
lavfi.silence_end=601.989
lavfi.silence_duration=0.0534014
frame:30605 pts:31339520 pts_time:710.647
lavfi.silence_start=710.615
frame:30609 pts:31343616 pts_time:710.74
lavfi.silence_end=710.74
lavfi.silence_duration=0.12483
frame:31117 pts:31863808 pts_time:722.535
lavfi.silence_start=722.499
frame:31118 pts:31864832 pts_time:722.559
lavfi.silence_end=722.574
lavfi.silence_duration=0.0751927
frame:31201 pts:31949824 pts_time:724.486
lavfi.silence_start=724.44
lavfi.silence_end=724.491
lavfi.silence_duration=0.0508163
frame:31288 pts:32038912 pts_time:726.506
lavfi.silence_start=726.465
frame:31291 pts:32041984 pts_time:726.576
lavfi.silence_end=726.589
lavfi.silence_duration=0.124082
frame:31294 pts:32045056 pts_time:726.645
lavfi.silence_start=726.617
frame:31296 pts:32047104 pts_time:726.692
lavfi.silence_end=726.696
lavfi.silence_duration=0.0788435
frame:31298 pts:32049152 pts_time:726.738
lavfi.silence_start=726.696
frame:31299 pts:32050176 pts_time:726.761
lavfi.silence_end=726.781
lavfi.silence_duration=0.0844898
frame:31318 pts:32069632 pts_time:727.203
lavfi.silence_start=727.159
frame:31340 pts:32092160 pts_time:727.713
lavfi.silence_end=727.724
lavfi.silence_duration=0.564195
frame:31453 pts:32207872 pts_time:730.337
lavfi.silence_start=730.3
frame:31454 pts:32208896 pts_time:730.36
lavfi.silence_end=730.377
lavfi.silence_duration=0.0777778
frame:31584 pts:32342016 pts_time:733.379
lavfi.silence_start=733.35
frame:31585 pts:32343040 pts_time:733.402
lavfi.silence_end=733.421
lavfi.silence_duration=0.0711791
frame:31643 pts:32402432 pts_time:734.749
lavfi.silence_start=734.721
frame:31644 pts:32403456 pts_time:734.772
lavfi.silence_end=734.79
lavfi.silence_duration=0.0697279
frame:31939 pts:32705536 pts_time:741.622
lavfi.silence_start=741.587
frame:31940 pts:32706560 pts_time:741.645
lavfi.silence_end=741.647
lavfi.silence_duration=0.0593197
frame:31974 pts:32741376 pts_time:742.435
lavfi.silence_start=742.396
frame:31975 pts:32742400 pts_time:742.458
lavfi.silence_end=742.466
lavfi.silence_duration=0.0706576
frame:35890 pts:36751360 pts_time:833.364
lavfi.silence_start=833.336
frame:35988 pts:36851712 pts_time:835.64
lavfi.silence_end=835.662
lavfi.silence_duration=2.32649
